<?xml version="1.0" encoding="UTF-8"?>
<svg xmlns="http://www.w3.org/2000/svg" xmlns:xlink="http://www.w3.org/1999/xlink" viewBox="0 0 120 120" width="120px" height="120px">
<g id="surface114157638">
<path style=" stroke:none;fill-rule:nonzero;fill:rgb(100%,100%,100%);fill-opacity:1;" d="M 60 12 C 33.492188 12 12 33.492188 12 60 C 12 69.003906 14.53125 77.398438 18.84375 84.601562 L 12.429688 108 L 36.328125 101.726562 C 43.316406 105.699219 51.386719 108 60 108 C 86.507812 108 108 86.507812 108 60 C 108 33.492188 86.507812 12 60 12 Z M 43.570312 37.609375 C 44.351562 37.609375 45.152344 37.605469 45.84375 37.640625 C 46.699219 37.660156 47.632812 37.722656 48.523438 39.695312 C 49.582031 42.039062 51.890625 47.917969 52.1875 48.515625 C 52.484375 49.113281 52.691406 49.8125 52.28125 50.59375 C 51.890625 51.394531 51.683594 51.878906 51.109375 52.585938 C 50.511719 53.273438 49.859375 54.128906 49.320312 54.648438 C 48.722656 55.246094 48.109375 55.898438 48.796875 57.085938 C 49.484375 58.273438 51.875 62.167969 55.40625 65.3125 C 59.945312 69.367188 63.777344 70.613281 64.96875 71.210938 C 66.160156 71.808594 66.851562 71.714844 67.539062 70.914062 C 68.246094 70.132812 70.511719 67.457031 71.3125 66.265625 C 72.09375 65.074219 72.890625 65.28125 73.96875 65.671875 C 75.066406 66.0625 80.910156 68.941406 82.101562 69.539062 C 83.292969 70.136719 84.074219 70.429688 84.375 70.914062 C 84.683594 71.414062 84.683594 73.792969 83.695312 76.570312 C 82.707031 79.34375 77.855469 82.023438 75.679688 82.210938 C 73.484375 82.414062 71.433594 83.199219 61.40625 79.25 C 49.308594 74.484375 41.683594 62.097656 41.085938 61.296875 C 40.488281 60.515625 36.242188 54.855469 36.242188 49.015625 C 36.242188 43.15625 39.316406 40.285156 40.390625 39.09375 C 41.488281 37.902344 42.769531 37.609375 43.570312 37.609375 Z M 43.570312 37.609375 "/>
</g>
</svg>
